<?xml version="1.0" encoding="utf-8"?>
<!-- Generator: Adobe Illustrator 24.0.1, SVG Export Plug-In . SVG Version: 6.00 Build 0)  -->
<svg version="1.1" id="Layer_1" xmlns="http://www.w3.org/2000/svg" xmlns:xlink="http://www.w3.org/1999/xlink" x="0px" y="0px"
	 viewBox="0 0 59 35" style="enable-background:new 0 0 59 35;" xml:space="preserve">
<style type="text/css">
	.st0{fill-rule:evenodd;clip-rule:evenodd;fill:#FFFFFF;}
	.st1{fill:#FFFFFF;}
</style>
<path class="st0" d="M50.6,11.5c-0.6,0.5-1.3,0.1-1.4-0.7c0-0.5,0.2-1,0.6-1.2C51.1,9,51.3,11,50.6,11.5"/>
<path class="st0" d="M4.3,18.1L4.3,18.1c-2.9-1.3-1.7,3.7-1.4,6.1C4.9,23.4,6.7,19.1,4.3,18.1 M2.4,16.2c0.9-0.6,4.8-4.1,2.1-4.7
	c-0.5-0.1-1.2-0.2-1.9-0.2C2.5,12.8,2.5,14.7,2.4,16.2z M3,7.9c0.3,0.4,0,1.3-0.1,1.7c1,0.8,2.9,0.6,3.6,1.6c1.3,2.1-1.5,4-2.3,5.6
	c1.6,0.2,3.1,0.7,2.7,3.8c-0.2,1.7-2.4,4.5-4.1,5.4c-1,0.5-1.3,0.1-1.5-0.8c-0.5-2-0.4-4.1-0.4-6.6c0-0.5-0.5-0.5-0.7-0.9
	c0.2-0.4,0.5-0.7,0.7-1c0.1-3.1-0.4-6.7,0.4-9.1C1.8,7.3,2.7,7.5,3,7.9z"/>
<path class="st1" d="M29.4,26.8c-0.4-0.6-0.2-1.5-0.2-2.3c0-0.3,0-0.5,0-0.7c0-0.7,0-1.4,0-2.2c0-0.7,0-1.3,0-2
	c-1.1,0.1-2.2,0.2-3.3,0.3c0,0.5,0.1,4.1,0.1,5.3c0,1.2-1.6,1.3-1.7-0.4c-0.1-1.9-0.7-5.1-0.2-6c0.3-0.6,1.3-0.6,2.1-0.6
	c1,0,2-0.1,2.9,0c0-1.3,0.1-2.6,0.1-3.8c0-1.8,0-3.6,0.1-5.1c-0.2-0.1-0.7-0.1-1.2,0c-0.3,0-0.6,0-0.9,0c-2-0.1-2.1-2,0.2-2.1
	c1.1-0.1,2.4,0.2,3.1,0.4c0.1,0,0.2,0.1,0.2,0.2c0.3,2.8,0.4,6.1,0.3,9.4c0,3.1-0.2,6.1-0.3,8.8c0,0.4,0,0.7-0.3,1
	C30.2,27.5,29.7,27.3,29.4,26.8"/>
<path class="st0" d="M9.9,16.6L9.9,16.6c0.6-0.1,1.3,0.1,1.6-0.2c-0.1-0.6-0.1-1.3-0.2-1.9c-0.2-1.1-0.5-1.2-0.9-0.1
	C10.2,15,10.1,15.8,9.9,16.6 M11.9,10.4c0.5,1.8,0.5,4.1,0.9,5.9c0.5,0.2,1,0.3,1.2,0.9c0,0.6-0.7,0.5-0.9,0.9
	c0.3,2.4,1,4.8,0.9,7.4c0,0.9-0.5,1.4-1.1,0.7c-0.6-0.8-0.4-2.4-0.5-3.5c-0.2-1.7-0.4-3.5-0.7-4.7c-0.7,0-1.2,0-1.8,0
	c-0.5,1.8-0.1,4.7-0.5,6.6c-0.2,1-0.9,1-1.2,0.2c-0.6-1.6,0.5-4.7,0.2-6.5C8,16.8,7.5,18,8.3,16.6c1-1.7,0.8-4.4,1.5-6.3
	C10.6,8.3,11.4,8.6,11.9,10.4z"/>
<path class="st0" d="M19,10.8c-0.3,1.3-2.3,1.4-2.4,2.4c-0.2,1.4,3.1,2.7,3.3,4.5c0.1,0.4,0,0.8-0.2,1.2c-0.6,1.6-3.2,2.9-3,4.3
	c0.1,0.8,1.2,1.2,2.3,1.4c1.2,0.2,1.6,1.3-0.1,1.5c-1.3,0.2-2.7-0.7-3.3-1.5c-0.7-0.9-1-1.6-0.4-2.5c0.5-0.8,1.3-1.6,2.1-2.3
	c0.7-0.9,1.2-1.8,0.4-2.9c-0.5-0.6-1.4-1.3-2.2-1.9c-1.2-1-1.4-1.7-0.3-3C16.4,10.6,18.8,9.1,19,10.8"/>
<path class="st1" d="M57.8,13.1c-0.2,0.5-0.6,0.8-1.3,1c-0.5,0.2-1.1,0.3-1.1,0.7c-0.1,0.4,0.7,1,1.6,1.5c2.5,1.6,2.2,2.7-0.1,4.3
	c-0.8,0.5-1.6,1-1.5,1.5c0.1,0.4,0.8,0.6,1.7,0.8c0.5,0.1,0.9,0.2,1.3,0.4c1.3,0.6-0.1,1.3-1,1.1c-0.9-0.2-4.2-1.1-3.9-2.6
	c0.1-0.7,1-1.3,1.9-1.8c0.3-0.2,0.7-0.4,1-0.6c0.7-0.7,0.7-0.8,0.6-1.6c0-0.5-1.2-1-1.6-1.2c-0.9-0.5-1.8-1-1.9-1.7
	c-0.1-0.5,0.9-1.4,1.9-2c0.3-0.2,0.6-0.3,0.9-0.4c0.3-0.1,0.6-0.1,0.8-0.1C57.4,12.4,57.7,12.6,57.8,13.1
	C57.8,13.1,57.8,13.1,57.8,13.1"/>
<path class="st0" d="M37.9,12c0.4,1.5,0.1,3.7,0.4,5.3c1.4-0.5,2.9-2.3,4.4-2.8c1.1-0.3,2.8,0.1,1.4,1.5c-1.1,1.1-3,1.2-4.5,1.9
	c1.5,1.3,4.2,1.4,5.1,3.3c0.7,1.6-0.4,1.5-1.6,0.9c-1.7-0.9-2.7-3.2-4.9-3.6c-0.2,1.7,0.4,3.6-0.2,4.9c-0.8,0.1-1.2-0.1-1.6-0.5
	c0.3-3.4-0.9-7.6,0.1-10.9C36.9,11.4,37.8,11.6,37.9,12"/>
<path class="st0" d="M22.3,12.1c0.8,1.7,0.2,5.3,0.4,7.9c0.1,0.8,0,2.1,0.1,3.2c0.1,0.9,1.1,2.4-0.3,2.6c-1,0.1-1.4-1.5-1.5-2.4
	c-0.3-2.6-0.1-9.1,0-11.6C21.4,10.9,22.1,11.6,22.3,12.1"/>
<path class="st0" d="M34.3,12.1c0.1,3.2,0.9,7.7,0.5,10.6c-0.2,1.8-1.4,1.9-1.7,0.6c-0.2-1.1-0.2-3.2-0.2-4.6c0-2.5-0.2-5.6,0.1-7
	C33.2,11.1,34.2,11.6,34.3,12.1"/>
<path class="st0" d="M52,19.5c0.2-1.7-0.2-3.5-1.3-4.4c-1-0.8-2-0.7-2.8,0.4c-1,1.5-1,4.1-0.1,5.9C48.9,23.5,51.6,22.3,52,19.5
	 M49,13.3c5.3-0.7,6.1,10,1,10.7c-3.6,0.5-4.8-2.8-4.5-5.9C45.8,15.9,46.7,13.6,49,13.3z"/>
</svg>
