<?xml version="1.0" encoding="utf-8"?>
<!-- Generator: Adobe Illustrator 24.0.1, SVG Export Plug-In . SVG Version: 6.00 Build 0)  -->
<svg version="1.1" id="Layer_1" xmlns="http://www.w3.org/2000/svg" xmlns:xlink="http://www.w3.org/1999/xlink" x="0px" y="0px"
	 viewBox="0 0 59 35" style="enable-background:new 0 0 59 35;" xml:space="preserve">
<style type="text/css">
	.st0{fill-rule:evenodd;clip-rule:evenodd;}
</style>
<path d="M31.2,19.1c-0.1-0.8-0.3-1.6-0.5-2.4l0,0c-0.4-1.4-1-3-1.7-4.5c-0.6-1.3-1.4-2.6-2.2-3.6l0,0c0,0,0-0.1,0-0.1
	c0,0,0.1,0,0.1,0c0.6,0.5,1.3,1.5,2,2.8c0.8,1.6,1.6,3.4,1.9,4.6c0.1,0.2,0.1,0.4,0.2,0.6c0.1,0.2,0.1,0.4,0.2,0.6
	c0.2,0.7,0.3,1.5,0.5,2.4c0.1,1.1,0.2,2.2,0.3,2.9c0,0.1,0,0.3,0,0.4c0,0.6,0.1,1.4-0.2,1.6v0c0,0-0.1,0-0.1,0
	c-0.2-0.3-0.2-1.5-0.2-2.2c0-0.2,0-0.3,0-0.4C31.4,20.8,31.3,19.9,31.2,19.1"/>
<path class="st0" d="M31.2,16.2c1.4-0.5,2.6-1.3,3.3-2.7c0.6-1.3,0.6-3.3,0.5-4.3c-1.8,1.4-3,2.6-3.6,4.9
	C31.3,14.4,31.2,15.8,31.2,16.2 M34.3,11.2c-0.1,1.6-1.5,3.3-2.3,3.9C33,13.8,33.7,13,34.3,11.2z"/>
<path class="st0" d="M30.2,6.9c-0.9,2.5-0.2,3.5-0.3,5.2c1.2-1.6,1.6-2.3,1.6-4.1c0-1-0.3-2.8-0.8-3.5c-1.2,1-2,2.7-2,4.1
	c0,1.3,0.4,1.8,0.7,2.8c0.1,0.4,0.1,0.5,0.2,0.9C30.1,10.9,29,9.5,30.2,6.9"/>
<path class="st0" d="M29.6,14.8c-0.1-0.4-1.9-0.7-2.5-1c-1-0.4-1.4-1.1-2.1-1.7c1.1,0.6,1.1,1.3,3.3,1.9c0.4,0.1,0.9,0.4,1.3,0.5
	c-0.9-1.7-2.2-3.6-4.4-4c-0.8-0.1-1.3,0.1-1.8,0.1c0.2,0.6,0.5,1.1,0.8,1.6c0.3,0.6,0.8,1,1.4,1.4C27.5,14.7,28.9,14.4,29.6,14.8"/>
<path class="st0" d="M26.7,8.3c-0.1-0.2,1.4-3.9-3.8-6.5c0,0,0.3,1.3,0.3,1.6C23.6,5.2,23.6,6.6,26,8C26.2,8.1,26.5,8.3,26.7,8.3"/>
<path class="st0" d="M24.8,7.4c-0.3-0.5-0.9-0.8-1.2-1.9c-0.1-0.2,0-0.3-0.1-0.5l-0.3-1.7l-1.4-0.5C22,3.9,22.1,4.9,22.6,6
	c0.5,1,1.8,2.1,3,2c-0.3-0.2-0.6-0.4-0.8-0.5c-1.6-0.7-2.1-2.8-2.3-3.4C23.1,5.4,23.5,6.8,24.8,7.4"/>
<path class="st0" d="M24,3.2c1.1,1,1.5,1.9,1.9,3.3c0.2,0.6,0.4,1.2,0.4,1.3C26.1,5.7,25.4,3.9,24,3.2"/>
<path class="st0" d="M25.9,21.4c0,0.9,0,1.8,0,2.8c0,1,0.1,2.1,0.2,3.3c0.1,1.2,0.2,2.5,0.2,3.2c0,0.7,0,0.7,0.4,0.8
	c0.3,0.1,1,0.3,1.8,0.6c0.8,0.2,1.6,0.5,2.3,0.6c0.7,0.2,1.1,0.2,1.6,0.3c0.5,0.1,1,0.2,1.3,0.2c0.3,0,0.5,0,0.6,0
	c0.1,0,0.1,0,0.3-0.8c0.2-0.8,0.6-2.4,1-3.8c0.3-1.4,0.6-2.5,0.8-3.5c0.2-1,0.4-1.9,0.5-2.7c0.1-0.8,0.2-1.7,0.2-2.2
	c0-0.5,0.1-0.7,0.1-0.9c0,0,0,0-0.2,0c-0.2,0-0.5,0-1,0c-0.5,0-1.1,0.1-1.8,0.2c-0.7,0.2-1.5,0.4-2.1,0.6c-0.5,0.2-0.8,0.3-1,0.3
	c-0.2,0.1-0.4,0.2-0.6,0.2c-0.1,0-0.4,0.1-0.7,0.2c-0.3,0.1-0.7,0.2-1.1,0.3c-0.4,0.1-0.6,0.1-0.9,0.2c-0.2,0-0.4,0-0.5,0.1
	c-0.2,0-0.4,0-0.5,0c-0.1,0-0.2,0-0.3,0c-0.1,0-0.2,0-0.3,0C26.1,21.4,26.1,21.4,25.9,21.4C25.9,21.4,25.9,21.4,25.9,21.4z"/>
<path d="M25.9,21.4c0,0.9,0,1.8,0,2.8c0,1,0.1,2.1,0.2,3.3c0.1,1.2,0.2,2.5,0.2,3.2c0,0.7,0,0.7,0.4,0.8c0.3,0.1,1,0.3,1.8,0.6
	c0.8,0.2,1.6,0.5,2.3,0.6c0.7,0.2,1.1,0.2,1.6,0.3c0.5,0.1,1,0.2,1.3,0.2c0.3,0,0.5,0,0.6,0c0.1,0,0.1,0,0.3-0.8
	c0.2-0.8,0.6-2.4,1-3.8c0.3-1.4,0.6-2.5,0.8-3.5c0.2-1,0.4-1.9,0.5-2.7c0.1-0.8,0.2-1.7,0.2-2.2c0-0.5,0.1-0.7,0.1-0.9
	c0,0,0,0-0.2,0c-0.2,0-0.5,0-1,0c-0.5,0-1.1,0.1-1.8,0.2c-0.7,0.2-1.5,0.4-2.1,0.6c-0.5,0.2-0.8,0.3-1,0.3c-0.2,0.1-0.4,0.2-0.6,0.2
	c-0.1,0-0.4,0.1-0.7,0.2c-0.3,0.1-0.7,0.2-1.1,0.3c-0.4,0.1-0.6,0.1-0.9,0.2c-0.2,0-0.4,0-0.5,0.1c-0.2,0-0.4,0-0.5,0
	c-0.1,0-0.2,0-0.3,0c-0.1,0-0.2,0-0.3,0C26.1,21.4,26.1,21.4,25.9,21.4C25.9,21.4,25.9,21.4,25.9,21.4z"/>
</svg>
